<?xml version="1.0" encoding="UTF-8" standalone="no"?><!DOCTYPE svg PUBLIC "-//W3C//DTD SVG 1.1//EN" "http://www.w3.org/Graphics/SVG/1.1/DTD/svg11.dtd"><!-- Generated by graphviz version 2.40.1 (20161225.0304)
 --><!-- Title: finite_state_machine Pages: 1 --><svg xmlns="http://www.w3.org/2000/svg" xmlns:xlink="http://www.w3.org/1999/xlink" width="1254pt" height="1309pt" viewBox="0.00 0.00 1254.00 1309.00">
<g id="graph0" class="graph" transform="scale(1 1) rotate(0) translate(4 1305)">
<title>finite_state_machine</title>
<polygon fill="#ffffff" stroke="transparent" points="-4,4 -4,-1305 1250,-1305 1250,4 -4,4"/>
<!-- BC -->
<g id="node1" class="node">
<title>BC</title>
<polygon fill="none" stroke="#000000" points="616.2131,-665.7231 562.2131,-665.7231 562.2131,-629.7231 616.2131,-629.7231 616.2131,-665.7231"/>
<text text-anchor="middle" x="589.2131" y="-643.5231" font-family="Helvetica,Arial,sans-serif" font-size="14.00" fill="#000000">BC</text>
</g>
<!-- mg -->
<g id="node29" class="node">
<title>mg</title>
<polygon fill="none" stroke="#000000" points="823.09,-878.7182 787.09,-878.7182 787.09,-842.7182 823.09,-842.7182 823.09,-878.7182"/>
<text text-anchor="middle" x="805.09" y="-856.5182" font-family="Helvetica,Arial,sans-serif" font-size="14.00" fill="#000000">mg</text>
</g>
<!-- BC&#45;&gt;mg -->
<g id="edge4" class="edge">
<title>BC-&gt;mg</title>
<path fill="none" stroke="#000000" d="M607.6187,-665.883C646.2698,-704.0182 735.9325,-792.4839 779.8851,-835.8497"/>
<polygon fill="#000000" stroke="#000000" points="777.4589,-838.3728 787.0355,-842.9047 782.3753,-833.3898 777.4589,-838.3728"/>
</g>
<!-- nt -->
<g id="node30" class="node">
<title>nt</title>
<polygon fill="none" stroke="#000000" points="431.7827,-849.937 395.7827,-849.937 395.7827,-813.937 431.7827,-813.937 431.7827,-849.937"/>
<text text-anchor="middle" x="413.7827" y="-827.737" font-family="Helvetica,Arial,sans-serif" font-size="14.00" fill="#000000">nt</text>
</g>
<!-- BC&#45;&gt;nt -->
<g id="edge1" class="edge">
<title>BC-&gt;nt</title>
<path fill="none" stroke="#000000" d="M571.7508,-666.0597C540.3574,-699.025 474.3155,-768.3734 438.3657,-806.1232"/>
<polygon fill="#000000" stroke="#000000" points="435.5362,-804.0192 431.1744,-813.6745 440.6053,-808.8466 435.5362,-804.0192"/>
</g>
<!-- rc -->
<g id="node32" class="node">
<title>rc</title>
<polygon fill="none" stroke="#000000" points="412.2666,-509.3668 376.2666,-509.3668 376.2666,-473.3668 412.2666,-473.3668 412.2666,-509.3668"/>
<text text-anchor="middle" x="394.2666" y="-487.1668" font-family="Helvetica,Arial,sans-serif" font-size="14.00" fill="#000000">rc</text>
</g>
<!-- BC&#45;&gt;rc -->
<g id="edge3" class="edge">
<title>BC-&gt;rc</title>
<path fill="none" stroke="#000000" d="M566.4688,-629.4811C530.0518,-600.273 458.855,-543.1698 420.4006,-512.3276"/>
<polygon fill="#000000" stroke="#000000" points="422.2575,-509.3302 412.2668,-505.8038 417.8778,-514.7909 422.2575,-509.3302"/>
</g>
<!-- kx -->
<g id="node50" class="node">
<title>kx</title>
<polygon fill="none" stroke="#000000" points="803.87,-433.0352 767.87,-433.0352 767.87,-397.0352 803.87,-397.0352 803.87,-433.0352"/>
<text text-anchor="middle" x="785.87" y="-410.8352" font-family="Helvetica,Arial,sans-serif" font-size="14.00" fill="#000000">kx</text>
</g>
<!-- BC&#45;&gt;kx -->
<g id="edge2" class="edge">
<title>BC-&gt;kx</title>
<path fill="none" stroke="#000000" d="M604.6445,-629.4645C639.3961,-588.3458 723.8794,-488.3836 764.0092,-440.9013"/>
<polygon fill="#000000" stroke="#000000" points="766.7285,-443.1059 770.5104,-433.209 761.3822,-438.5874 766.7285,-443.1059"/>
</g>
<!-- dg -->
<g id="node2" class="node">
<title>dg</title>
<polygon fill="none" stroke="#000000" points="700.6511,-676.2721 657.0587,-639.3697 744.2436,-639.3697 700.6511,-676.2721"/>
<text text-anchor="middle" x="700.6511" y="-647.4705" font-family="Helvetica,Arial,sans-serif" font-size="14.00" fill="#000000">dg</text>
</g>
<!-- rx -->
<g id="node59" class="node">
<title>rx</title>
<polygon fill="none" stroke="#000000" points="854.0882,-654.9212 818.0882,-654.9212 818.0882,-618.9212 854.0882,-618.9212 854.0882,-654.9212"/>
<text text-anchor="middle" x="836.0882" y="-632.7212" font-family="Helvetica,Arial,sans-serif" font-size="14.00" fill="#000000">rx</text>
</g>
<!-- dg&#45;&gt;rx -->
<g id="edge5" class="edge">
<title>dg-&gt;rx</title>
<path fill="none" stroke="#000000" d="M734.1299,-648.0246C756.78,-645.558 786.3651,-642.3361 807.8284,-639.9988"/>
<polygon fill="#000000" stroke="#000000" points="808.3767,-643.4598 817.9389,-638.8977 807.6188,-636.501 808.3767,-643.4598"/>
</g>
<!-- dv -->
<g id="node3" class="node">
<title>dv</title>
<polygon fill="none" stroke="#000000" points="208.3221,-316.4079 165.889,-279.5055 250.7552,-279.5055 208.3221,-316.4079"/>
<text text-anchor="middle" x="208.3221" y="-287.6063" font-family="Helvetica,Arial,sans-serif" font-size="14.00" fill="#000000">dv</text>
</g>
<!-- xt -->
<g id="node9" class="node">
<title>xt</title>
<polygon fill="none" stroke="#000000" points="485.4782,-465.1245 448.2834,-428.2221 522.6731,-428.2221 485.4782,-465.1245"/>
<text text-anchor="middle" x="485.4782" y="-436.3229" font-family="Helvetica,Arial,sans-serif" font-size="14.00" fill="#000000">xt</text>
</g>
<!-- dv&#45;&gt;xt -->
<g id="edge10" class="edge">
<title>dv-&gt;xt</title>
<path fill="none" stroke="#000000" d="M226.0811,-301.3354C271.8979,-325.9198 394.6011,-391.76 453.3132,-423.2637"/>
<polygon fill="#000000" stroke="#000000" points="451.6986,-426.3694 462.1651,-428.0135 455.0083,-420.2012 451.6986,-426.3694"/>
</g>
<!-- hx -->
<g id="node15" class="node">
<title>hx</title>
<polygon fill="none" stroke="#000000" points="44.8944,-232.9027 8.8944,-232.9027 8.8944,-196.9027 44.8944,-196.9027 44.8944,-232.9027"/>
<text text-anchor="middle" x="26.8944" y="-210.7027" font-family="Helvetica,Arial,sans-serif" font-size="14.00" fill="#000000">hx</text>
</g>
<!-- dv&#45;&gt;hx -->
<g id="edge6" class="edge">
<title>dv-&gt;hx</title>
<path fill="none" stroke="#000000" d="M179.1726,-279.4504C144.7113,-264.8429 87.8062,-240.722 54.1795,-226.4683"/>
<polygon fill="#000000" stroke="#000000" points="55.5189,-223.2346 44.9459,-222.5544 52.7869,-229.6796 55.5189,-223.2346"/>
</g>
<!-- fd -->
<g id="node17" class="node">
<title>fd</title>
<polygon fill="none" stroke="#000000" points="117.9728,-180.2765 81.9728,-180.2765 81.9728,-144.2765 117.9728,-144.2765 117.9728,-180.2765"/>
<text text-anchor="middle" x="99.9728" y="-158.0765" font-family="Helvetica,Arial,sans-serif" font-size="14.00" fill="#000000">fd</text>
</g>
<!-- dv&#45;&gt;fd -->
<g id="edge9" class="edge">
<title>dv-&gt;fd</title>
<path fill="none" stroke="#000000" d="M197.9331,-279.3864C180.4818,-258.5237 144.9249,-216.016 121.7913,-188.3602"/>
<polygon fill="#000000" stroke="#000000" points="124.4338,-186.0642 115.3331,-180.6395 119.0646,-190.5555 124.4338,-186.0642"/>
</g>
<!-- bl -->
<g id="node20" class="node">
<title>bl</title>
<polygon fill="none" stroke="#000000" points="289.2471,-123.9038 253.2471,-123.9038 253.2471,-87.9038 289.2471,-87.9038 289.2471,-123.9038"/>
<text text-anchor="middle" x="271.2471" y="-101.7038" font-family="Helvetica,Arial,sans-serif" font-size="14.00" fill="#000000">bl</text>
</g>
<!-- dv&#45;&gt;bl -->
<g id="edge7" class="edge">
<title>dv-&gt;bl</title>
<path fill="none" stroke="#000000" d="M212.5485,-279.32C222.5573,-249.7506 247.9063,-174.8606 261.7934,-133.8332"/>
<polygon fill="#000000" stroke="#000000" points="265.1698,-134.7746 265.0608,-124.1803 258.5393,-132.5302 265.1698,-134.7746"/>
</g>
<!-- dv&#45;&gt;rc -->
<g id="edge8" class="edge">
<title>dv-&gt;rc</title>
<path fill="none" stroke="#000000" d="M218.4458,-307.9986C246.9304,-344.181 327.423,-431.0161 368.9544,-470.8731"/>
<polygon fill="#000000" stroke="#000000" points="366.5602,-473.4262 376.2345,-477.7458 371.3655,-468.336 366.5602,-473.4262"/>
</g>
<!-- xq -->
<g id="node4" class="node">
<title>xq</title>
<polygon fill="none" stroke="#000000" points="269.1549,-1109.2019 226.7217,-1072.2995 311.588,-1072.2995 269.1549,-1109.2019"/>
<text text-anchor="middle" x="269.1549" y="-1080.4003" font-family="Helvetica,Arial,sans-serif" font-size="14.00" fill="#000000">xq</text>
</g>
<!-- sp -->
<g id="node8" class="node">
<title>sp</title>
<polygon fill="none" stroke="#000000" points="509.465,-917.8868 467.0318,-880.9844 551.8981,-880.9844 509.465,-917.8868"/>
<text text-anchor="middle" x="509.465" y="-889.0852" font-family="Helvetica,Arial,sans-serif" font-size="14.00" fill="#000000">sp</text>
</g>
<!-- xq&#45;&gt;sp -->
<g id="edge16" class="edge">
<title>xq-&gt;sp</title>
<path fill="none" stroke="#000000" d="M284.9223,-1072.0476C326.2942,-1039.1106 438.1007,-950.0995 486.5549,-911.5243"/>
<polygon fill="#000000" stroke="#000000" points="488.925,-914.1111 494.5686,-905.1444 484.5651,-908.6347 488.925,-914.1111"/>
</g>
<!-- hs -->
<g id="node11" class="node">
<title>hs</title>
<polygon fill="none" stroke="#000000" points="92.5825,-1172.7396 56.5825,-1172.7396 56.5825,-1136.7396 92.5825,-1136.7396 92.5825,-1172.7396"/>
<text text-anchor="middle" x="74.5825" y="-1150.5396" font-family="Helvetica,Arial,sans-serif" font-size="14.00" fill="#000000">hs</text>
</g>
<!-- xq&#45;&gt;hs -->
<g id="edge14" class="edge">
<title>xq-&gt;hs</title>
<path fill="none" stroke="#000000" d="M249.065,-1091.8422C214.1408,-1104.4317 142.1737,-1130.3744 102.4465,-1144.6952"/>
<polygon fill="#000000" stroke="#000000" points="101.071,-1141.4705 92.8505,-1148.1544 103.4449,-1148.0557 101.071,-1141.4705"/>
</g>
<!-- qh -->
<g id="node22" class="node">
<title>qh</title>
<polygon fill="none" stroke="#000000" points="170.1756,-981.627 134.1756,-981.627 134.1756,-945.627 170.1756,-945.627 170.1756,-981.627"/>
<text text-anchor="middle" x="152.1756" y="-959.427" font-family="Helvetica,Arial,sans-serif" font-size="14.00" fill="#000000">qh</text>
</g>
<!-- xq&#45;&gt;qh -->
<g id="edge13" class="edge">
<title>xq-&gt;qh</title>
<path fill="none" stroke="#000000" d="M257.0766,-1072.1096C238.2434,-1052.6334 201.4928,-1014.628 176.8832,-989.1782"/>
<polygon fill="#000000" stroke="#000000" points="179.1363,-986.4733 169.6688,-981.7175 174.1042,-991.3393 179.1363,-986.4733"/>
</g>
<!-- xq&#45;&gt;nt -->
<g id="edge15" class="edge">
<title>xq-&gt;nt</title>
<path fill="none" stroke="#000000" d="M280.0013,-1072.2958C307.1042,-1033.5197 376.0844,-913.6466 403.0481,-859.2379"/>
<polygon fill="#000000" stroke="#000000" points="406.2272,-860.7034 407.4323,-850.1773 399.9261,-857.6544 406.2272,-860.7034"/>
</g>
<!-- zl -->
<g id="node38" class="node">
<title>zl</title>
<polygon fill="none" stroke="#000000" points="176.0937,-1256.3024 140.0937,-1256.3024 140.0937,-1220.3024 176.0937,-1220.3024 176.0937,-1256.3024"/>
<text text-anchor="middle" x="158.0937" y="-1234.1024" font-family="Helvetica,Arial,sans-serif" font-size="14.00" fill="#000000">zl</text>
</g>
<!-- xq&#45;&gt;zl -->
<g id="edge11" class="edge">
<title>xq-&gt;zl</title>
<path fill="none" stroke="#000000" d="M258.0999,-1099.8997C239.243,-1125.9966 200.6396,-1179.4214 177.2969,-1211.7264"/>
<polygon fill="#000000" stroke="#000000" points="174.1667,-1210.0824 171.1468,-1220.2378 179.8405,-1214.1822 174.1667,-1210.0824"/>
</g>
<!-- cx -->
<g id="node51" class="node">
<title>cx</title>
<polygon fill="none" stroke="#000000" points="314.6548,-933.2496 278.6548,-933.2496 278.6548,-897.2496 314.6548,-897.2496 314.6548,-933.2496"/>
<text text-anchor="middle" x="296.6548" y="-911.0496" font-family="Helvetica,Arial,sans-serif" font-size="14.00" fill="#000000">cx</text>
</g>
<!-- xq&#45;&gt;cx -->
<g id="edge12" class="edge">
<title>xq-&gt;cx</title>
<path fill="none" stroke="#000000" d="M271.177,-1072.1475C275.546,-1045.2422 285.9617,-981.1 292.0367,-943.6888"/>
<polygon fill="#000000" stroke="#000000" points="295.5507,-943.8846 293.6989,-933.4528 288.6412,-942.7625 295.5507,-943.8846"/>
</g>
<!-- lk -->
<g id="node5" class="node">
<title>lk</title>
<polygon fill="none" stroke="#000000" points="885.2136,-834.0989 849.1821,-797.1965 921.245,-797.1965 885.2136,-834.0989"/>
<text text-anchor="middle" x="885.2136" y="-805.2973" font-family="Helvetica,Arial,sans-serif" font-size="14.00" fill="#000000">lk</text>
</g>
<!-- lk&#45;&gt;dg -->
<g id="edge17" class="edge">
<title>lk-&gt;dg</title>
<path fill="none" stroke="#000000" d="M870.7312,-797.1128C838.7349,-769.7515 761.8177,-703.9765 723.3529,-671.0837"/>
<polygon fill="#000000" stroke="#000000" points="725.1963,-668.0549 715.3215,-664.2157 720.6469,-673.3749 725.1963,-668.0549"/>
</g>
<!-- vv -->
<g id="node6" class="node">
<title>vv</title>
<polygon fill="none" stroke="#000000" points="1016.2255,-244.8872 974.9514,-207.9848 1057.4996,-207.9848 1016.2255,-244.8872"/>
<text text-anchor="middle" x="1016.2255" y="-216.0856" font-family="Helvetica,Arial,sans-serif" font-size="14.00" fill="#000000">vv</text>
</g>
<!-- zv -->
<g id="node7" class="node">
<title>zv</title>
<polygon fill="none" stroke="#000000" points="868.9174,-488.7245 827.6432,-451.8221 910.1915,-451.8221 868.9174,-488.7245"/>
<text text-anchor="middle" x="868.9174" y="-459.9229" font-family="Helvetica,Arial,sans-serif" font-size="14.00" fill="#000000">zv</text>
</g>
<!-- vv&#45;&gt;zv -->
<g id="edge18" class="edge">
<title>vv-&gt;zv</title>
<path fill="none" stroke="#000000" d="M1006.5602,-236.2844C980.817,-278.8969 910.5856,-395.1499 881.6437,-443.0571"/>
<polygon fill="#000000" stroke="#000000" points="878.6065,-441.316 876.4313,-451.6852 884.598,-444.9357 878.6065,-441.316"/>
</g>
<!-- mm -->
<g id="node16" class="node">
<title>mm</title>
<polygon fill="none" stroke="#000000" points="1117.6912,-95.9094 1078.0462,-95.9094 1078.0462,-56.2643 1117.6912,-56.2643 1117.6912,-95.9094"/>
<text text-anchor="middle" x="1097.8687" y="-71.8868" font-family="Helvetica,Arial,sans-serif" font-size="14.00" fill="#000000">mm</text>
</g>
<!-- vv&#45;&gt;mm -->
<g id="edge21" class="edge">
<title>vv-&gt;mm</title>
<path fill="none" stroke="#000000" d="M1023.328,-207.7412C1036.2514,-184.9157 1063.9119,-136.0616 1081.6624,-104.7105"/>
<polygon fill="#000000" stroke="#000000" points="1084.7243,-106.4062 1086.6056,-95.9798 1078.6329,-102.9573 1084.7243,-106.4062"/>
</g>
<!-- br -->
<g id="node21" class="node">
<title>br</title>
<polygon fill="none" stroke="#000000" points="944.5758,-62.9187 908.5758,-62.9187 908.5758,-26.9187 944.5758,-26.9187 944.5758,-62.9187"/>
<text text-anchor="middle" x="926.5758" y="-40.7187" font-family="Helvetica,Arial,sans-serif" font-size="14.00" fill="#000000">br</text>
</g>
<!-- vv&#45;&gt;br -->
<g id="edge19" class="edge">
<title>vv-&gt;br</title>
<path fill="none" stroke="#000000" d="M1009.9215,-207.9541C995.5921,-179.9239 960.2896,-110.8674 940.5348,-72.2243"/>
<polygon fill="#000000" stroke="#000000" points="943.5378,-70.4094 935.8696,-63.0986 937.3051,-73.5957 943.5378,-70.4094"/>
</g>
<!-- tr -->
<g id="node46" class="node">
<title>tr</title>
<polygon fill="none" stroke="#000000" points="897.1536,-151.4767 861.1536,-151.4767 861.1536,-115.4767 897.1536,-115.4767 897.1536,-151.4767"/>
<text text-anchor="middle" x="879.1536" y="-129.2767" font-family="Helvetica,Arial,sans-serif" font-size="14.00" fill="#000000">tr</text>
</g>
<!-- vv&#45;&gt;tr -->
<g id="edge22" class="edge">
<title>vv-&gt;tr</title>
<path fill="none" stroke="#000000" d="M996.5864,-207.848C972.7765,-192.7689 932.5378,-167.2854 905.9079,-150.4205"/>
<polygon fill="#000000" stroke="#000000" points="907.763,-147.4525 897.442,-145.059 904.0177,-153.3663 907.763,-147.4525"/>
</g>
<!-- vv&#45;&gt;kx -->
<g id="edge20" class="edge">
<title>vv-&gt;kx</title>
<path fill="none" stroke="#000000" d="M999.1906,-230.0738C958.3323,-259.4256 855.1925,-346.2151 808.8898,-389.7359"/>
<polygon fill="#000000" stroke="#000000" points="806.2676,-387.4003 801.4475,-396.8352 811.0992,-392.4654 806.2676,-387.4003"/>
</g>
<!-- zv&#45;&gt;dg -->
<g id="edge23" class="edge">
<title>zv-&gt;dg</title>
<path fill="none" stroke="#000000" d="M856.5443,-477.9137C827.1914,-510.6302 753.2327,-593.0636 718.8045,-631.4369"/>
<polygon fill="#000000" stroke="#000000" points="715.7807,-629.5661 711.7078,-639.3468 720.9911,-634.2408 715.7807,-629.5661"/>
</g>
<!-- sp&#45;&gt;dg -->
<g id="edge24" class="edge">
<title>sp-&gt;dg</title>
<path fill="none" stroke="#000000" d="M519.2087,-880.9713C549.5642,-842.6091 642.7646,-724.8256 682.4516,-674.6705"/>
<polygon fill="#000000" stroke="#000000" points="685.319,-676.6871 688.7796,-666.6733 679.8297,-672.3434 685.319,-676.6871"/>
</g>
<!-- xt&#45;&gt;dg -->
<g id="edge25" class="edge">
<title>xt-&gt;dg</title>
<path fill="none" stroke="#000000" d="M497.9769,-452.7877C533.7683,-487.9096 636.8798,-589.0922 680.6352,-632.029"/>
<polygon fill="#000000" stroke="#000000" points="678.2583,-634.6003 687.8473,-639.1062 683.1611,-629.604 678.2583,-634.6003"/>
</g>
<!-- jc -->
<g id="node10" class="node">
<title>jc</title>
<polygon fill="none" stroke="#000000" points="1039.1225,-1044.4644 1003.091,-1007.562 1075.1539,-1007.562 1039.1225,-1044.4644"/>
<text text-anchor="middle" x="1039.1225" y="-1015.6628" font-family="Helvetica,Arial,sans-serif" font-size="14.00" fill="#000000">jc</text>
</g>
<!-- jc&#45;&gt;lk -->
<g id="edge28" class="edge">
<title>jc-&gt;lk</title>
<path fill="none" stroke="#000000" d="M1029.9557,-1007.3335C1004.7091,-972.826 933.9016,-876.045 901.622,-831.9247"/>
<polygon fill="#000000" stroke="#000000" points="904.256,-829.5972 895.5266,-823.5933 898.6065,-833.7305 904.256,-829.5972"/>
</g>
<!-- jc&#45;&gt;mg -->
<g id="edge29" class="edge">
<title>jc-&gt;mg</title>
<path fill="none" stroke="#000000" d="M1027.1027,-1007.562C990.883,-977.9476 882.7021,-904.0165 831.9074,-873.726"/>
<polygon fill="#000000" stroke="#000000" points="833.522,-870.6159 823.121,-868.5985 829.9938,-876.6617 833.522,-870.6159"/>
</g>
<!-- xv -->
<g id="node55" class="node">
<title>xv</title>
<polygon fill="none" stroke="#000000" points="1245.9319,-1107.9036 1209.9319,-1107.9036 1209.9319,-1071.9036 1245.9319,-1071.9036 1245.9319,-1107.9036"/>
<text text-anchor="middle" x="1227.9319" y="-1085.7036" font-family="Helvetica,Arial,sans-serif" font-size="14.00" fill="#000000">xv</text>
</g>
<!-- jc&#45;&gt;xv -->
<g id="edge27" class="edge">
<title>jc-&gt;xv</title>
<path fill="none" stroke="#000000" d="M1056.8852,-1026.4521C1089.9046,-1038.701 1160.9476,-1065.0551 1200.2935,-1079.6509"/>
<polygon fill="#000000" stroke="#000000" points="1199.2089,-1082.9815 1209.802,-1083.1781 1201.6436,-1076.4186 1199.2089,-1082.9815"/>
</g>
<!-- ps -->
<g id="node58" class="node">
<title>ps</title>
<polygon fill="none" stroke="#000000" points="1088.0007,-1254.8948 1052.0007,-1254.8948 1052.0007,-1218.8948 1088.0007,-1218.8948 1088.0007,-1254.8948"/>
<text text-anchor="middle" x="1070.0007" y="-1232.6948" font-family="Helvetica,Arial,sans-serif" font-size="14.00" fill="#000000">ps</text>
</g>
<!-- jc&#45;&gt;ps -->
<g id="edge26" class="edge">
<title>jc-&gt;ps</title>
<path fill="none" stroke="#000000" d="M1042.1961,-1041.4661C1047.819,-1080.9875 1059.757,-1164.8954 1066.0027,-1208.7947"/>
<polygon fill="#000000" stroke="#000000" points="1062.5511,-1209.3829 1067.4248,-1218.7902 1069.4813,-1208.3968 1062.5511,-1209.3829"/>
</g>
<!-- sl -->
<g id="node52" class="node">
<title>sl</title>
<polygon fill="none" stroke="#000000" points="119.3076,-1227.5475 83.3076,-1227.5475 83.3076,-1191.5475 119.3076,-1191.5475 119.3076,-1227.5475"/>
<text text-anchor="middle" x="101.3076" y="-1205.3475" font-family="Helvetica,Arial,sans-serif" font-size="14.00" fill="#000000">sl</text>
</g>
<!-- hs&#45;&gt;sl -->
<g id="edge30" class="edge">
<title>hs-&gt;sl</title>
<path fill="none" stroke="#000000" d="M83.4816,-1172.9898C84.9089,-1175.917 86.413,-1179.0016 87.9175,-1182.0871"/>
<polygon fill="#000000" stroke="#000000" points="84.8275,-1183.7357 92.3563,-1191.1901 91.1193,-1180.6677 84.8275,-1183.7357"/>
</g>
<!-- vp -->
<g id="node12" class="node">
<title>vp</title>
<polygon fill="none" stroke="#000000" points="151.7944,-120.3256 115.7944,-120.3256 115.7944,-84.3256 151.7944,-84.3256 151.7944,-120.3256"/>
<text text-anchor="middle" x="133.7944" y="-98.1256" font-family="Helvetica,Arial,sans-serif" font-size="14.00" fill="#000000">vp</text>
</g>
<!-- vp&#45;&gt;dv -->
<g id="edge32" class="edge">
<title>vp-&gt;dv</title>
<path fill="none" stroke="#000000" d="M140.9405,-120.4938C154.6609,-155.3769 184.6518,-231.6265 199.5553,-269.5175"/>
<polygon fill="#000000" stroke="#000000" points="196.4153,-271.0963 203.3327,-279.1212 202.9295,-268.5341 196.4153,-271.0963"/>
</g>
<!-- vp&#45;&gt;fd -->
<g id="edge31" class="edge">
<title>vp-&gt;fd</title>
<path fill="none" stroke="#000000" d="M123.463,-120.6386C120.8405,-125.2872 117.9678,-130.3793 115.1592,-135.3576"/>
<polygon fill="#000000" stroke="#000000" points="112.1061,-133.6463 110.2409,-144.0757 118.2029,-137.0858 112.1061,-133.6463"/>
</g>
<!-- kz -->
<g id="node13" class="node">
<title>kz</title>
<polygon fill="none" stroke="#000000" points="1153.7719,-1203.5052 1117.7719,-1203.5052 1117.7719,-1167.5052 1153.7719,-1167.5052 1153.7719,-1203.5052"/>
<text text-anchor="middle" x="1135.7719" y="-1181.3052" font-family="Helvetica,Arial,sans-serif" font-size="14.00" fill="#000000">kz</text>
</g>
<!-- kz&#45;&gt;jc -->
<g id="edge33" class="edge">
<title>kz-&gt;jc</title>
<path fill="none" stroke="#000000" d="M1125.2448,-1167.4633C1107.8039,-1137.5723 1072.8997,-1077.7519 1053.3051,-1044.1697"/>
<polygon fill="#000000" stroke="#000000" points="1056.2744,-1042.3136 1048.2116,-1035.4402 1050.2283,-1045.8414 1056.2744,-1042.3136"/>
</g>
<!-- mc -->
<g id="node27" class="node">
<title>mc</title>
<polygon fill="none" stroke="#000000" points="1192.8096,-1147.1674 1156.8096,-1147.1674 1156.8096,-1111.1674 1192.8096,-1111.1674 1192.8096,-1147.1674"/>
<text text-anchor="middle" x="1174.8096" y="-1124.9674" font-family="Helvetica,Arial,sans-serif" font-size="14.00" fill="#000000">mc</text>
</g>
<!-- kz&#45;&gt;mc -->
<g id="edge34" class="edge">
<title>kz-&gt;mc</title>
<path fill="none" stroke="#000000" d="M1148.3386,-1167.3695C1150.9157,-1163.6502 1153.6789,-1159.6625 1156.4126,-1155.7173"/>
<polygon fill="#000000" stroke="#000000" points="1159.4478,-1157.4822 1162.2665,-1147.2692 1153.6941,-1153.4953 1159.4478,-1157.4822"/>
</g>
<!-- nv -->
<g id="node14" class="node">
<title>nv</title>
<polygon fill="none" stroke="#000000" points="87.1159,-407.0454 51.1159,-407.0454 51.1159,-371.0454 87.1159,-371.0454 87.1159,-407.0454"/>
<text text-anchor="middle" x="69.1159" y="-384.8454" font-family="Helvetica,Arial,sans-serif" font-size="14.00" fill="#000000">nv</text>
</g>
<!-- nv&#45;&gt;dv -->
<g id="edge35" class="edge">
<title>nv-&gt;dv</title>
<path fill="none" stroke="#000000" d="M87.3147,-376.3331C112.0531,-359.0526 156.3659,-328.099 183.9536,-308.8283"/>
<polygon fill="#000000" stroke="#000000" points="186.0832,-311.6101 192.2769,-303.0142 182.0746,-305.8715 186.0832,-311.6101"/>
</g>
<!-- gf -->
<g id="node34" class="node">
<title>gf</title>
<polygon fill="none" stroke="#000000" points="36.3769,-290.3986 .3769,-290.3986 .3769,-254.3986 36.3769,-254.3986 36.3769,-290.3986"/>
<text text-anchor="middle" x="18.3769" y="-268.1986" font-family="Helvetica,Arial,sans-serif" font-size="14.00" fill="#000000">gf</text>
</g>
<!-- hx&#45;&gt;gf -->
<g id="edge36" class="edge">
<title>hx-&gt;gf</title>
<path fill="none" stroke="#000000" d="M24.1994,-233.0948C23.6868,-236.5554 23.139,-240.253 22.5922,-243.9441"/>
<polygon fill="#000000" stroke="#000000" points="19.0869,-243.7226 21.0836,-254.1275 26.0114,-244.7484 19.0869,-243.7226"/>
</g>
<!-- vh -->
<g id="node42" class="node">
<title>vh</title>
<polygon fill="none" stroke="#000000" points="1173.83,-195.2552 1137.83,-195.2552 1137.83,-159.2552 1173.83,-159.2552 1173.83,-195.2552"/>
<text text-anchor="middle" x="1155.83" y="-173.0552" font-family="Helvetica,Arial,sans-serif" font-size="14.00" fill="#000000">vh</text>
</g>
<!-- mm&#45;&gt;vh -->
<g id="edge37" class="edge">
<title>mm-&gt;vh</title>
<path fill="none" stroke="#000000" d="M1109.32,-96.0744C1118.172,-111.5252 1130.5191,-133.0765 1140.2672,-150.0911"/>
<polygon fill="#000000" stroke="#000000" points="1137.3685,-152.0724 1145.3766,-159.0094 1143.4423,-148.5926 1137.3685,-152.0724"/>
</g>
<!-- td -->
<g id="node19" class="node">
<title>td</title>
<polygon fill="none" stroke="#000000" points="64.7055,-168.7968 28.7055,-168.7968 28.7055,-132.7968 64.7055,-132.7968 64.7055,-168.7968"/>
<text text-anchor="middle" x="46.7055" y="-146.5968" font-family="Helvetica,Arial,sans-serif" font-size="14.00" fill="#000000">td</text>
</g>
<!-- fd&#45;&gt;td -->
<g id="edge38" class="edge">
<title>fd-&gt;td</title>
<path fill="none" stroke="#000000" d="M81.9389,-158.39C79.596,-157.8851 77.1537,-157.3587 74.6959,-156.8291"/>
<polygon fill="#000000" stroke="#000000" points="75.2337,-153.3647 64.7208,-154.6793 73.759,-160.2076 75.2337,-153.3647"/>
</g>
<!-- hg -->
<g id="node18" class="node">
<title>hg</title>
<polygon fill="none" stroke="#000000" points="220.4871,-1300.8885 184.4871,-1300.8885 184.4871,-1264.8885 220.4871,-1264.8885 220.4871,-1300.8885"/>
<text text-anchor="middle" x="202.4871" y="-1278.6885" font-family="Helvetica,Arial,sans-serif" font-size="14.00" fill="#000000">hg</text>
</g>
<!-- hg&#45;&gt;xq -->
<g id="edge39" class="edge">
<title>hg-&gt;xq</title>
<path fill="none" stroke="#000000" d="M208.6395,-1264.5894C220.2833,-1229.9578 245.6181,-1154.6051 259.5304,-1113.2261"/>
<polygon fill="#000000" stroke="#000000" points="262.8552,-1114.3195 262.7246,-1103.7255 256.2202,-1112.0887 262.8552,-1114.3195"/>
</g>
<!-- td&#45;&gt;dv -->
<g id="edge40" class="edge">
<title>td-&gt;dv</title>
<path fill="none" stroke="#000000" d="M64.9308,-166.6983C94.9154,-192.8596 154.521,-244.8651 186.6304,-272.8804"/>
<polygon fill="#000000" stroke="#000000" points="184.3304,-275.5186 194.1666,-279.4557 188.9325,-270.244 184.3304,-275.5186"/>
</g>
<!-- td&#45;&gt;hx -->
<g id="edge41" class="edge">
<title>td-&gt;hx</title>
<path fill="none" stroke="#000000" d="M41.0814,-168.9955C39.3519,-174.592 37.4068,-180.8862 35.5242,-186.9781"/>
<polygon fill="#000000" stroke="#000000" points="32.0727,-186.2928 32.464,-196.8804 38.7606,-188.3596 32.0727,-186.2928"/>
</g>
<!-- jt -->
<g id="node37" class="node">
<title>jt</title>
<polygon fill="none" stroke="#000000" points="214.8074,-98.4679 178.8074,-98.4679 178.8074,-62.4679 214.8074,-62.4679 214.8074,-98.4679"/>
<text text-anchor="middle" x="196.8074" y="-76.2679" font-family="Helvetica,Arial,sans-serif" font-size="14.00" fill="#000000">jt</text>
</g>
<!-- bl&#45;&gt;jt -->
<g id="edge42" class="edge">
<title>bl-&gt;jt</title>
<path fill="none" stroke="#000000" d="M253.2273,-99.7464C244.6048,-96.8002 234.0891,-93.207 224.483,-89.9246"/>
<polygon fill="#000000" stroke="#000000" points="225.5138,-86.5782 214.9192,-86.6567 223.2504,-93.2021 225.5138,-86.5782"/>
</g>
<!-- jq -->
<g id="node49" class="node">
<title>jq</title>
<polygon fill="none" stroke="#000000" points="1024.1594,-37.2262 988.1594,-37.2262 988.1594,-1.2262 1024.1594,-1.2262 1024.1594,-37.2262"/>
<text text-anchor="middle" x="1006.1594" y="-15.0262" font-family="Helvetica,Arial,sans-serif" font-size="14.00" fill="#000000">jq</text>
</g>
<!-- br&#45;&gt;jq -->
<g id="edge43" class="edge">
<title>br-&gt;jq</title>
<path fill="none" stroke="#000000" d="M944.6345,-39.0887C954.5361,-35.8921 967.0274,-31.8594 978.1636,-28.2643"/>
<polygon fill="#000000" stroke="#000000" points="979.4556,-31.5251 987.8966,-25.1221 977.3049,-24.8637 979.4556,-31.5251"/>
</g>
<!-- ln -->
<g id="node26" class="node">
<title>ln</title>
<polygon fill="none" stroke="#000000" points="97.0583,-1039.1232 61.0583,-1039.1232 61.0583,-1003.1232 97.0583,-1003.1232 97.0583,-1039.1232"/>
<text text-anchor="middle" x="79.0583" y="-1016.9232" font-family="Helvetica,Arial,sans-serif" font-size="14.00" fill="#000000">ln</text>
</g>
<!-- qh&#45;&gt;ln -->
<g id="edge44" class="edge">
<title>qh-&gt;ln</title>
<path fill="none" stroke="#000000" d="M134.1017,-977.8396C125.4013,-984.6811 114.8055,-993.0132 105.2423,-1000.5333"/>
<polygon fill="#000000" stroke="#000000" points="102.875,-997.9423 97.1777,-1006.8749 107.202,-1003.4448 102.875,-997.9423"/>
</g>
<!-- sg -->
<g id="node23" class="node">
<title>sg</title>
<polygon fill="none" stroke="#000000" points="882.5004,-286.9403 846.5004,-286.9403 846.5004,-250.9403 882.5004,-250.9403 882.5004,-286.9403"/>
<text text-anchor="middle" x="864.5004" y="-264.7403" font-family="Helvetica,Arial,sans-serif" font-size="14.00" fill="#000000">sg</text>
</g>
<!-- sg&#45;&gt;vv -->
<g id="edge45" class="edge">
<title>sg-&gt;vv</title>
<path fill="none" stroke="#000000" d="M882.501,-263.1679C908.0309,-254.9811 955.0854,-239.8918 986.0172,-229.9727"/>
<polygon fill="#000000" stroke="#000000" points="987.381,-233.211 995.8346,-226.8245 985.2434,-226.5453 987.381,-233.211"/>
</g>
<!-- sg&#45;&gt;tr -->
<g id="edge46" class="edge">
<title>sg-&gt;tr</title>
<path fill="none" stroke="#000000" d="M866.4766,-250.6711C868.9346,-227.9477 873.1591,-188.8929 876.0507,-162.1614"/>
<polygon fill="#000000" stroke="#000000" points="879.5661,-162.2076 877.1619,-151.8891 872.6066,-161.4547 879.5661,-162.2076"/>
</g>
<!-- dm -->
<g id="node24" class="node">
<title>dm</title>
<polygon fill="none" stroke="#000000" points="338.0742,-214.3934 302.0742,-214.3934 302.0742,-178.3934 338.0742,-178.3934 338.0742,-214.3934"/>
<text text-anchor="middle" x="320.0742" y="-192.1934" font-family="Helvetica,Arial,sans-serif" font-size="14.00" fill="#000000">dm</text>
</g>
<!-- dm&#45;&gt;dv -->
<g id="edge48" class="edge">
<title>dm-&gt;dv</title>
<path fill="none" stroke="#000000" d="M301.6206,-212.1489C282.1372,-228.7836 251.419,-255.0105 230.5997,-272.7858"/>
<polygon fill="#000000" stroke="#000000" points="228.2141,-270.2205 222.8816,-279.3755 232.7594,-275.5441 228.2141,-270.2205"/>
</g>
<!-- dm&#45;&gt;bl -->
<g id="edge47" class="edge">
<title>dm-&gt;bl</title>
<path fill="none" stroke="#000000" d="M310.1933,-178.0814C303.2442,-165.2029 293.8252,-147.7471 285.9909,-133.2279"/>
<polygon fill="#000000" stroke="#000000" points="288.9422,-131.327 281.1133,-124.1885 282.7818,-134.6511 288.9422,-131.327"/>
</g>
<!-- gt -->
<g id="node25" class="node">
<title>gt</title>
<polygon fill="none" stroke="#000000" points="309.1003,-1298.4913 273.1003,-1298.4913 273.1003,-1262.4913 309.1003,-1262.4913 309.1003,-1298.4913"/>
<text text-anchor="middle" x="291.1003" y="-1276.2913" font-family="Helvetica,Arial,sans-serif" font-size="14.00" fill="#000000">gt</text>
</g>
<!-- gt&#45;&gt;xq -->
<g id="edge49" class="edge">
<title>gt-&gt;xq</title>
<path fill="none" stroke="#000000" d="M289.075,-1262.4134C285.3755,-1229.3907 277.4774,-1158.8896 272.8143,-1117.2652"/>
<polygon fill="#000000" stroke="#000000" points="276.2666,-1116.6435 271.675,-1107.0953 269.3101,-1117.4229 276.2666,-1116.6435"/>
</g>
<!-- gt&#45;&gt;hg -->
<g id="edge50" class="edge">
<title>gt-&gt;hg</title>
<path fill="none" stroke="#000000" d="M272.7396,-1280.988C260.6593,-1281.3148 244.6059,-1281.7491 230.8946,-1282.12"/>
<polygon fill="#000000" stroke="#000000" points="230.4227,-1278.6314 220.5211,-1282.4006 230.6121,-1285.6288 230.4227,-1278.6314"/>
</g>
<!-- ln&#45;&gt;xq -->
<g id="edge52" class="edge">
<title>ln-&gt;xq</title>
<path fill="none" stroke="#000000" d="M97.2856,-1027.2097C125.8737,-1036.7558 182.1558,-1055.5495 222.5311,-1069.0317"/>
<polygon fill="#000000" stroke="#000000" points="221.5756,-1072.4025 232.1693,-1072.2501 223.7928,-1065.7629 221.5756,-1072.4025"/>
</g>
<!-- mq -->
<g id="node43" class="node">
<title>mq</title>
<polygon fill="none" stroke="#000000" points="75.2133,-1111.4003 39.2133,-1111.4003 39.2133,-1075.4003 75.2133,-1075.4003 75.2133,-1111.4003"/>
<text text-anchor="middle" x="57.2133" y="-1089.2003" font-family="Helvetica,Arial,sans-serif" font-size="14.00" fill="#000000">mq</text>
</g>
<!-- ln&#45;&gt;mq -->
<g id="edge51" class="edge">
<title>ln-&gt;mq</title>
<path fill="none" stroke="#000000" d="M73.5459,-1039.3618C71.1657,-1047.2369 68.327,-1056.6292 65.689,-1065.3573"/>
<polygon fill="#000000" stroke="#000000" points="62.2668,-1064.5826 62.7239,-1075.1676 68.9675,-1066.6079 62.2668,-1064.5826"/>
</g>
<!-- mc&#45;&gt;jc -->
<g id="edge54" class="edge">
<title>mc-&gt;jc</title>
<path fill="none" stroke="#000000" d="M1156.7914,-1114.6526C1131.9427,-1094.6354 1087.2193,-1058.6079 1060.6444,-1037.2001"/>
<polygon fill="#000000" stroke="#000000" points="1062.6852,-1034.3498 1052.702,-1030.802 1058.2939,-1039.801 1062.6852,-1034.3498"/>
</g>
<!-- mc&#45;&gt;xv -->
<g id="edge53" class="edge">
<title>mc-&gt;xv</title>
<path fill="none" stroke="#000000" d="M1193.0913,-1115.655C1195.8768,-1113.5962 1198.7973,-1111.4376 1201.7124,-1109.283"/>
<polygon fill="#000000" stroke="#000000" points="1203.835,-1112.0664 1209.7965,-1103.3079 1199.6743,-1106.4371 1203.835,-1112.0664"/>
</g>
<!-- tx -->
<g id="node28" class="node">
<title>tx</title>
<polygon fill="none" stroke="#000000" points="1189.2967,-1047.3722 1153.2967,-1047.3722 1153.2967,-1011.3722 1189.2967,-1011.3722 1189.2967,-1047.3722"/>
<text text-anchor="middle" x="1171.2967" y="-1025.1722" font-family="Helvetica,Arial,sans-serif" font-size="14.00" fill="#000000">tx</text>
</g>
<!-- tx&#45;&gt;jc -->
<g id="edge56" class="edge">
<title>tx-&gt;jc</title>
<path fill="none" stroke="#000000" d="M1153.1956,-1028.0699C1132.3165,-1026.5678 1097.5732,-1024.0681 1071.905,-1022.2214"/>
<polygon fill="#000000" stroke="#000000" points="1072.0976,-1018.7263 1061.8722,-1021.4996 1071.5952,-1025.7083 1072.0976,-1018.7263"/>
</g>
<!-- rv -->
<g id="node57" class="node">
<title>rv</title>
<polygon fill="none" stroke="#000000" points="1244.7005,-1025.7454 1208.7005,-1025.7454 1208.7005,-989.7454 1244.7005,-989.7454 1244.7005,-1025.7454"/>
<text text-anchor="middle" x="1226.7005" y="-1003.5454" font-family="Helvetica,Arial,sans-serif" font-size="14.00" fill="#000000">rv</text>
</g>
<!-- tx&#45;&gt;rv -->
<g id="edge55" class="edge">
<title>tx-&gt;rv</title>
<path fill="none" stroke="#000000" d="M1189.438,-1022.2908C1192.4676,-1021.1082 1195.6712,-1019.8577 1198.8769,-1018.6064"/>
<polygon fill="#000000" stroke="#000000" points="1200.2861,-1021.8136 1208.3288,-1014.9168 1197.7407,-1015.2927 1200.2861,-1021.8136"/>
</g>
<!-- mg&#45;&gt;jc -->
<g id="edge58" class="edge">
<title>mg-&gt;jc</title>
<path fill="none" stroke="#000000" d="M823.1926,-877.8816C862.1123,-908.4122 954.0387,-971.2434 1004.5202,-1002.1473"/>
<polygon fill="#000000" stroke="#000000" points="1002.7748,-1005.182 1013.1445,-1007.3547 1006.393,-999.1896 1002.7748,-1005.182"/>
</g>
<!-- hl -->
<g id="node47" class="node">
<title>hl</title>
<polygon fill="none" stroke="#000000" points="911.0735,-1014.8828 875.0735,-1014.8828 875.0735,-978.8828 911.0735,-978.8828 911.0735,-1014.8828"/>
<text text-anchor="middle" x="893.0735" y="-992.6828" font-family="Helvetica,Arial,sans-serif" font-size="14.00" fill="#000000">hl</text>
</g>
<!-- mg&#45;&gt;hl -->
<g id="edge57" class="edge">
<title>mg-&gt;hl</title>
<path fill="none" stroke="#000000" d="M816.7735,-878.7998C831.8925,-902.1981 858.3581,-943.1568 875.8014,-970.1523"/>
<polygon fill="#000000" stroke="#000000" points="872.9747,-972.2268 881.3416,-978.7264 878.8541,-968.4277 872.9747,-972.2268"/>
</g>
<!-- nt&#45;&gt;xq -->
<g id="edge59" class="edge">
<title>nt-&gt;xq</title>
<path fill="none" stroke="#000000" d="M398.8265,-850.2601C368.3357,-895.8004 300.8541,-1013.7073 277.2216,-1062.7544"/>
<polygon fill="#000000" stroke="#000000" points="273.908,-1061.5803 272.8733,-1072.1245 280.2576,-1064.527 273.908,-1061.5803"/>
</g>
<!-- nt&#45;&gt;cx -->
<g id="edge60" class="edge">
<title>nt-&gt;cx</title>
<path fill="none" stroke="#000000" d="M395.7382,-844.772C376.3637,-858.553 345.3843,-880.5885 323.2238,-896.3511"/>
<polygon fill="#000000" stroke="#000000" points="321.033,-893.6144 314.9128,-902.2627 325.0904,-899.3186 321.033,-893.6144"/>
</g>
<!-- cd -->
<g id="node31" class="node">
<title>cd</title>
<polygon fill="none" stroke="#000000" points="998.6466,-1230.9932 962.6466,-1230.9932 962.6466,-1194.9932 998.6466,-1194.9932 998.6466,-1230.9932"/>
<text text-anchor="middle" x="980.6466" y="-1208.7932" font-family="Helvetica,Arial,sans-serif" font-size="14.00" fill="#000000">cd</text>
</g>
<!-- cd&#45;&gt;jc -->
<g id="edge61" class="edge">
<title>cd-&gt;jc</title>
<path fill="none" stroke="#000000" d="M986.1479,-1194.8239C996.3481,-1161.1353 1018.2644,-1088.7515 1030.4689,-1048.4432"/>
<polygon fill="#000000" stroke="#000000" points="1033.8731,-1049.2778 1033.4212,-1038.6927 1027.1734,-1047.2493 1033.8731,-1049.2778"/>
</g>
<!-- cd&#45;&gt;ps -->
<g id="edge62" class="edge">
<title>cd-&gt;ps</title>
<path fill="none" stroke="#000000" d="M998.7287,-1217.83C1011.2034,-1221.1669 1028.0274,-1225.6672 1042.197,-1229.4575"/>
<polygon fill="#000000" stroke="#000000" points="1041.3806,-1232.8621 1051.9454,-1232.0651 1043.1895,-1226.0998 1041.3806,-1232.8621"/>
</g>
<!-- rc&#45;&gt;dv -->
<g id="edge64" class="edge">
<title>rc-&gt;dv</title>
<path fill="none" stroke="#000000" d="M382.4875,-473.0878C352.0447,-434.9901 271.1623,-347.9369 231.1791,-309.9555"/>
<polygon fill="#000000" stroke="#000000" points="233.4586,-307.2957 223.7548,-303.0426 228.6884,-312.4187 233.4586,-307.2957"/>
</g>
<!-- rm -->
<g id="node35" class="node">
<title>rm</title>
<polygon fill="none" stroke="#000000" points="361.8326,-367.4233 325.8326,-367.4233 325.8326,-331.4233 361.8326,-331.4233 361.8326,-367.4233"/>
<text text-anchor="middle" x="343.8326" y="-345.2233" font-family="Helvetica,Arial,sans-serif" font-size="14.00" fill="#000000">rm</text>
</g>
<!-- rc&#45;&gt;rm -->
<g id="edge63" class="edge">
<title>rc-&gt;rm</title>
<path fill="none" stroke="#000000" d="M387.7765,-473.1008C379.1517,-448.8268 363.8312,-405.7082 353.752,-377.3408"/>
<polygon fill="#000000" stroke="#000000" points="356.9439,-375.8703 350.2978,-367.6193 350.3479,-378.214 356.9439,-375.8703"/>
</g>
<!-- nj -->
<g id="node33" class="node">
<title>nj</title>
<polygon fill="none" stroke="#000000" points="272.8282,-1254.3356 236.8282,-1254.3356 236.8282,-1218.3356 272.8282,-1218.3356 272.8282,-1254.3356"/>
<text text-anchor="middle" x="254.8282" y="-1232.1356" font-family="Helvetica,Arial,sans-serif" font-size="14.00" fill="#000000">nj</text>
</g>
<!-- nj&#45;&gt;xq -->
<g id="edge66" class="edge">
<title>nj-&gt;xq</title>
<path fill="none" stroke="#000000" d="M256.5279,-1218.3337C258.8618,-1193.6154 263.1007,-1148.7204 266.0188,-1117.8144"/>
<polygon fill="#000000" stroke="#000000" points="269.535,-1117.8068 266.9906,-1107.522 262.566,-1117.1487 269.535,-1117.8068"/>
</g>
<!-- pt -->
<g id="node56" class="node">
<title>pt</title>
<polygon fill="none" stroke="#000000" points="368.319,-1248.6909 332.319,-1248.6909 332.319,-1212.6909 368.319,-1212.6909 368.319,-1248.6909"/>
<text text-anchor="middle" x="350.319" y="-1226.4909" font-family="Helvetica,Arial,sans-serif" font-size="14.00" fill="#000000">pt</text>
</g>
<!-- nj&#45;&gt;pt -->
<g id="edge65" class="edge">
<title>nj-&gt;pt</title>
<path fill="none" stroke="#000000" d="M273.2398,-1235.2473C287.0666,-1234.4299 306.2522,-1233.2958 322.023,-1232.3636"/>
<polygon fill="#000000" stroke="#000000" points="322.5118,-1235.8409 332.2878,-1231.7568 322.0987,-1228.8531 322.5118,-1235.8409"/>
</g>
<!-- gf&#45;&gt;dv -->
<g id="edge68" class="edge">
<title>gf-&gt;dv</title>
<path fill="none" stroke="#000000" d="M36.5897,-274.2595C66.1448,-277.2793 125.3222,-283.3257 165.8695,-287.4687"/>
<polygon fill="#000000" stroke="#000000" points="165.699,-290.9694 176.003,-288.5041 166.4106,-284.0056 165.699,-290.9694"/>
</g>
<!-- dc -->
<g id="node48" class="node">
<title>dc</title>
<polygon fill="none" stroke="#000000" points="49.2398,-349.9403 13.2398,-349.9403 13.2398,-313.9403 49.2398,-313.9403 49.2398,-349.9403"/>
<text text-anchor="middle" x="31.2398" y="-327.7403" font-family="Helvetica,Arial,sans-serif" font-size="14.00" fill="#000000">dc</text>
</g>
<!-- gf&#45;&gt;dc -->
<g id="edge67" class="edge">
<title>gf-&gt;dc</title>
<path fill="none" stroke="#000000" d="M22.3061,-290.5866C23.2038,-294.7418 24.1785,-299.2537 25.1431,-303.719"/>
<polygon fill="#000000" stroke="#000000" points="21.802,-304.8283 27.3347,-313.8637 28.6441,-303.3501 21.802,-304.8283"/>
</g>
<!-- rm&#45;&gt;dv -->
<g id="edge70" class="edge">
<title>rm-&gt;dv</title>
<path fill="none" stroke="#000000" d="M325.5571,-341.6528C302.7801,-331.9684 263.6002,-315.3097 236.8555,-303.9383"/>
<polygon fill="#000000" stroke="#000000" points="238.1905,-300.7027 227.6182,-300.0107 235.4514,-307.1446 238.1905,-300.7027"/>
</g>
<!-- rm&#45;&gt;dm -->
<g id="edge69" class="edge">
<title>rm-&gt;dm</title>
<path fill="none" stroke="#000000" d="M341.0139,-331.2679C336.9237,-304.9221 329.305,-255.8496 324.4721,-224.7209"/>
<polygon fill="#000000" stroke="#000000" points="327.882,-223.8699 322.8892,-214.5252 320.9649,-224.9438 327.882,-223.8699"/>
</g>
<!-- xx -->
<g id="node36" class="node">
<title>xx</title>
<polygon fill="none" stroke="#000000" points="1191.6964,-295.5848 1155.6964,-295.5848 1155.6964,-259.5848 1191.6964,-259.5848 1191.6964,-295.5848"/>
<text text-anchor="middle" x="1173.6964" y="-273.3848" font-family="Helvetica,Arial,sans-serif" font-size="14.00" fill="#000000">xx</text>
</g>
<!-- xx&#45;&gt;vv -->
<g id="edge71" class="edge">
<title>xx-&gt;vv</title>
<path fill="none" stroke="#000000" d="M1155.6325,-271.0118C1128.8065,-261.2506 1078.1383,-242.8139 1045.8379,-231.0607"/>
<polygon fill="#000000" stroke="#000000" points="1046.6437,-227.6295 1036.0497,-227.499 1044.2501,-234.2075 1046.6437,-227.6295"/>
</g>
<!-- cz -->
<g id="node53" class="node">
<title>cz</title>
<polygon fill="none" stroke="#000000" points="1230.2247,-232.9134 1194.2247,-232.9134 1194.2247,-196.9134 1230.2247,-196.9134 1230.2247,-232.9134"/>
<text text-anchor="middle" x="1212.2247" y="-210.7134" font-family="Helvetica,Arial,sans-serif" font-size="14.00" fill="#000000">cz</text>
</g>
<!-- xx&#45;&gt;cz -->
<g id="edge72" class="edge">
<title>xx-&gt;cz</title>
<path fill="none" stroke="#000000" d="M1184.8404,-259.4576C1188.1657,-254.0485 1191.8862,-247.9968 1195.4868,-242.1399"/>
<polygon fill="#000000" stroke="#000000" points="1198.7167,-243.5689 1200.9723,-233.2169 1192.7535,-239.9029 1198.7167,-243.5689"/>
</g>
<!-- jt&#45;&gt;dv -->
<g id="edge73" class="edge">
<title>jt-&gt;dv</title>
<path fill="none" stroke="#000000" d="M197.7891,-98.4865C199.886,-136.9715 204.7975,-227.1167 207.0957,-269.2971"/>
<polygon fill="#000000" stroke="#000000" points="203.6064,-269.5901 207.6453,-279.3848 210.596,-269.2092 203.6064,-269.5901"/>
</g>
<!-- jt&#45;&gt;vp -->
<g id="edge74" class="edge">
<title>jt-&gt;vp</title>
<path fill="none" stroke="#000000" d="M178.5814,-86.79C173.4019,-88.5867 167.6362,-90.5867 162.0118,-92.5376"/>
<polygon fill="#000000" stroke="#000000" points="160.4985,-89.3579 152.1977,-95.9419 162.7925,-95.9714 160.4985,-89.3579"/>
</g>
<!-- zl&#45;&gt;nj -->
<g id="edge75" class="edge">
<title>zl-&gt;nj</title>
<path fill="none" stroke="#000000" d="M176.2887,-1237.9325C190.4757,-1237.644 210.429,-1237.2383 226.6734,-1236.9081"/>
<polygon fill="#000000" stroke="#000000" points="226.788,-1240.4066 236.7147,-1236.7039 226.6456,-1233.408 226.788,-1240.4066"/>
</g>
<!-- xc -->
<g id="node39" class="node">
<title>xc</title>
<polygon fill="none" stroke="#000000" points="1086.5813,-1203.6814 1050.5813,-1203.6814 1050.5813,-1167.6814 1086.5813,-1167.6814 1086.5813,-1203.6814"/>
<text text-anchor="middle" x="1068.5813" y="-1181.4814" font-family="Helvetica,Arial,sans-serif" font-size="14.00" fill="#000000">xc</text>
</g>
<!-- xc&#45;&gt;jc -->
<g id="edge76" class="edge">
<title>xc-&gt;jc</title>
<path fill="none" stroke="#000000" d="M1065.3727,-1167.6203C1060.3859,-1139.5507 1050.7152,-1085.1161 1044.6063,-1050.7306"/>
<polygon fill="#000000" stroke="#000000" points="1048.0293,-1049.9879 1042.834,-1040.7543 1041.1372,-1051.2124 1048.0293,-1049.9879"/>
</g>
<!-- xc&#45;&gt;kz -->
<g id="edge77" class="edge">
<title>xc-&gt;kz</title>
<path fill="none" stroke="#000000" d="M1086.5872,-1185.6342C1093.0643,-1185.6172 1100.5348,-1185.5976 1107.6661,-1185.5789"/>
<polygon fill="#000000" stroke="#000000" points="1107.7256,-1189.0789 1117.7164,-1185.5526 1107.7072,-1182.0789 1107.7256,-1189.0789"/>
</g>
<!-- tp -->
<g id="node40" class="node">
<title>tp</title>
<polygon fill="none" stroke="#000000" points="1205.5216,-957.8576 1169.5216,-957.8576 1169.5216,-921.8576 1205.5216,-921.8576 1205.5216,-957.8576"/>
<text text-anchor="middle" x="1187.5216" y="-935.6576" font-family="Helvetica,Arial,sans-serif" font-size="14.00" fill="#000000">tp</text>
</g>
<!-- tp&#45;&gt;jc -->
<g id="edge78" class="edge">
<title>tp-&gt;jc</title>
<path fill="none" stroke="#000000" d="M1169.325,-949.6678C1144.846,-962.8649 1100.925,-986.5437 1070.9233,-1002.7183"/>
<polygon fill="#000000" stroke="#000000" points="1069.2376,-999.6508 1062.0962,-1007.4772 1072.5594,-1005.8124 1069.2376,-999.6508"/>
</g>
<!-- lc -->
<g id="node41" class="node">
<title>lc</title>
<polygon fill="none" stroke="#000000" points="1215.6924,-147.4721 1179.6924,-147.4721 1179.6924,-111.4721 1215.6924,-111.4721 1215.6924,-147.4721"/>
<text text-anchor="middle" x="1197.6924" y="-125.2721" font-family="Helvetica,Arial,sans-serif" font-size="14.00" fill="#000000">lc</text>
</g>
<!-- lc&#45;&gt;vv -->
<g id="edge79" class="edge">
<title>lc-&gt;vv</title>
<path fill="none" stroke="#000000" d="M1179.6292,-138.5117C1149.464,-153.6076 1088.3725,-184.1803 1050.0326,-203.3671"/>
<polygon fill="#000000" stroke="#000000" points="1048.1844,-200.3782 1040.808,-207.9835 1051.3171,-206.6381 1048.1844,-200.3782"/>
</g>
<!-- vn -->
<g id="node45" class="node">
<title>vn</title>
<polygon fill="none" stroke="#000000" points="1170.4877,-81.9077 1134.4877,-81.9077 1134.4877,-45.9077 1170.4877,-45.9077 1170.4877,-81.9077"/>
<text text-anchor="middle" x="1152.4877" y="-59.7077" font-family="Helvetica,Arial,sans-serif" font-size="14.00" fill="#000000">vn</text>
</g>
<!-- lc&#45;&gt;vn -->
<g id="edge80" class="edge">
<title>lc-&gt;vn</title>
<path fill="none" stroke="#000000" d="M1185.1003,-111.2088C1180.6919,-104.8148 1175.6467,-97.4973 1170.8633,-90.5596"/>
<polygon fill="#000000" stroke="#000000" points="1173.57,-88.3193 1165.0122,-82.0731 1167.807,-92.2927 1173.57,-88.3193"/>
</g>
<!-- vh&#45;&gt;vv -->
<g id="edge82" class="edge">
<title>vh-&gt;vv</title>
<path fill="none" stroke="#000000" d="M1137.5791,-182.8806C1119.4402,-188.4716 1090.8077,-197.297 1065.9093,-204.9715"/>
<polygon fill="#000000" stroke="#000000" points="1064.7501,-201.6662 1056.2247,-207.9566 1066.812,-208.3557 1064.7501,-201.6662"/>
</g>
<!-- vh&#45;&gt;xx -->
<g id="edge81" class="edge">
<title>vh-&gt;xx</title>
<path fill="none" stroke="#000000" d="M1159.1069,-195.6572C1161.7766,-210.6484 1165.591,-232.0688 1168.6501,-249.2471"/>
<polygon fill="#000000" stroke="#000000" points="1165.2412,-250.068 1170.4402,-259.2994 1172.1327,-248.8407 1165.2412,-250.068"/>
</g>
<!-- mq&#45;&gt;xq -->
<g id="edge84" class="edge">
<title>mq-&gt;xq</title>
<path fill="none" stroke="#000000" d="M75.2833,-1092.65C109.831,-1091.2156 185.8906,-1088.0575 231.8024,-1086.1512"/>
<polygon fill="#000000" stroke="#000000" points="232.1025,-1089.6418 241.9486,-1085.7299 231.812,-1082.6479 232.1025,-1089.6418"/>
</g>
<!-- mq&#45;&gt;hs -->
<g id="edge83" class="edge">
<title>mq-&gt;hs</title>
<path fill="none" stroke="#000000" d="M62.3307,-1111.4724C63.6966,-1116.2961 65.205,-1121.6231 66.6829,-1126.8422"/>
<polygon fill="#000000" stroke="#000000" points="63.3495,-1127.9167 69.4417,-1136.5848 70.0846,-1126.0095 63.3495,-1127.9167"/>
</g>
<!-- cc -->
<g id="node44" class="node">
<title>cc</title>
<polygon fill="none" stroke="#000000" points="1089.4809,-35.5982 1053.4809,-35.5982 1053.4809,.4018 1089.4809,.4018 1089.4809,-35.5982"/>
<text text-anchor="middle" x="1071.4809" y="-13.3982" font-family="Helvetica,Arial,sans-serif" font-size="14.00" fill="#000000">cc</text>
</g>
<!-- cc&#45;&gt;vv -->
<g id="edge85" class="edge">
<title>cc-&gt;vv</title>
<path fill="none" stroke="#000000" d="M1066.4799,-35.9428C1056.3352,-73.1558 1033.3672,-157.4065 1022.3479,-197.8276"/>
<polygon fill="#000000" stroke="#000000" points="1018.9511,-196.9805 1019.6977,-207.549 1025.7047,-198.8217 1018.9511,-196.9805"/>
</g>
<!-- vn&#45;&gt;vv -->
<g id="edge86" class="edge">
<title>vn-&gt;vv</title>
<path fill="none" stroke="#000000" d="M1136.59,-82.1523C1110.9217,-111.61 1060.5329,-169.4373 1033.8198,-200.094"/>
<polygon fill="#000000" stroke="#000000" points="1030.8841,-198.1354 1026.9533,-207.9741 1036.1616,-202.7341 1030.8841,-198.1354"/>
</g>
<!-- vn&#45;&gt;cc -->
<g id="edge87" class="edge">
<title>vn-&gt;cc</title>
<path fill="none" stroke="#000000" d="M1134.106,-53.3994C1123.5715,-47.3771 1110.1571,-39.7084 1098.448,-33.0146"/>
<polygon fill="#000000" stroke="#000000" points="1099.9294,-29.83 1089.5108,-27.9054 1096.4553,-35.907 1099.9294,-29.83"/>
</g>
<!-- tr&#45;&gt;br -->
<g id="edge88" class="edge">
<title>tr-&gt;br</title>
<path fill="none" stroke="#000000" d="M888.9795,-115.1274C895.6364,-102.6961 904.5477,-86.0547 912.0237,-72.0938"/>
<polygon fill="#000000" stroke="#000000" points="915.2894,-73.4094 916.9247,-62.9415 909.1185,-70.1048 915.2894,-73.4094"/>
</g>
<!-- hl&#45;&gt;jc -->
<g id="edge90" class="edge">
<title>hl-&gt;jc</title>
<path fill="none" stroke="#000000" d="M911.2754,-999.7468C933.477,-1003.2401 971.6112,-1009.2403 1000.4685,-1013.7808"/>
<polygon fill="#000000" stroke="#000000" points="1000.2112,-1017.2833 1010.6337,-1015.3803 1001.2993,-1010.3684 1000.2112,-1017.2833"/>
</g>
<!-- qb -->
<g id="node54" class="node">
<title>qb</title>
<polygon fill="none" stroke="#000000" points="939.3002,-1147.3104 903.3002,-1147.3104 903.3002,-1111.3104 939.3002,-1111.3104 939.3002,-1147.3104"/>
<text text-anchor="middle" x="921.3002" y="-1125.1104" font-family="Helvetica,Arial,sans-serif" font-size="14.00" fill="#000000">qb</text>
</g>
<!-- hl&#45;&gt;qb -->
<g id="edge89" class="edge">
<title>hl-&gt;qb</title>
<path fill="none" stroke="#000000" d="M896.9391,-1015.0186C901.6634,-1037.1829 909.7114,-1074.9409 915.2565,-1100.956"/>
<polygon fill="#000000" stroke="#000000" points="911.8829,-1101.918 917.3907,-1110.9686 918.7291,-1100.4587 911.8829,-1101.918"/>
</g>
<!-- dc&#45;&gt;dv -->
<g id="edge91" class="edge">
<title>dc-&gt;dv</title>
<path fill="none" stroke="#000000" d="M49.5238,-327.7964C79.3292,-321.0413 138.7794,-307.5675 175.8815,-299.1586"/>
<polygon fill="#000000" stroke="#000000" points="176.7314,-302.5549 185.7104,-296.931 175.1841,-295.728 176.7314,-302.5549"/>
</g>
<!-- dc&#45;&gt;nv -->
<g id="edge92" class="edge">
<title>dc-&gt;nv</title>
<path fill="none" stroke="#000000" d="M43.2241,-350.0087C45.8492,-353.9666 48.6813,-358.2365 51.4756,-362.4494"/>
<polygon fill="#000000" stroke="#000000" points="48.6354,-364.4996 57.0796,-370.8985 54.4689,-360.6304 48.6354,-364.4996"/>
</g>
<!-- jq&#45;&gt;vv -->
<g id="edge94" class="edge">
<title>jq-&gt;vv</title>
<path fill="none" stroke="#000000" d="M1007.0704,-37.4235C1008.9107,-74.1804 1013.0672,-157.2012 1015.0844,-197.4938"/>
<polygon fill="#000000" stroke="#000000" points="1011.5972,-197.8389 1015.593,-207.6513 1018.5885,-197.4888 1011.5972,-197.8389"/>
</g>
<!-- jq&#45;&gt;mm -->
<g id="edge93" class="edge">
<title>jq-&gt;mm</title>
<path fill="none" stroke="#000000" d="M1024.2782,-30.46C1037.1604,-38.4471 1054.7208,-49.3347 1069.4568,-58.4712"/>
<polygon fill="#000000" stroke="#000000" points="1067.8567,-61.5972 1078.2,-63.8921 1071.5454,-55.6479 1067.8567,-61.5972"/>
</g>
<!-- kx&#45;&gt;vv -->
<g id="edge95" class="edge">
<title>kx-&gt;vv</title>
<path fill="none" stroke="#000000" d="M804.0479,-404.4226C846.9019,-373.4002 953.4734,-283.528 997.1747,-241.8271"/>
<polygon fill="#000000" stroke="#000000" points="999.8483,-244.1091 1004.5736,-234.6263 994.9661,-239.0926 999.8483,-244.1091"/>
</g>
<!-- kx&#45;&gt;sg -->
<g id="edge96" class="edge">
<title>kx-&gt;sg</title>
<path fill="none" stroke="#000000" d="M795.6696,-396.8276C809.2658,-371.5659 833.9604,-325.6835 849.7787,-296.2931"/>
<polygon fill="#000000" stroke="#000000" points="852.9199,-297.8418 854.5773,-287.3774 846.7559,-294.5242 852.9199,-297.8418"/>
</g>
<!-- cx&#45;&gt;qh -->
<g id="edge97" class="edge">
<title>cx-&gt;qh</title>
<path fill="none" stroke="#000000" d="M278.6485,-921.2788C253.8825,-929.5715 209.0754,-944.5747 179.9845,-954.3155"/>
<polygon fill="#000000" stroke="#000000" points="178.78,-951.0277 170.4088,-957.5218 181.0027,-957.6655 178.78,-951.0277"/>
</g>
<!-- sl&#45;&gt;xq -->
<g id="edge99" class="edge">
<title>sl-&gt;xq</title>
<path fill="none" stroke="#000000" d="M119.5897,-1195.9381C150.164,-1173.1783 211.6404,-1127.4146 245.4794,-1102.2246"/>
<polygon fill="#000000" stroke="#000000" points="247.9157,-1104.7743 253.8472,-1095.9954 243.7358,-1099.1592 247.9157,-1104.7743"/>
</g>
<!-- sl&#45;&gt;zl -->
<g id="edge98" class="edge">
<title>sl-&gt;zl</title>
<path fill="none" stroke="#000000" d="M119.5877,-1218.804C123.1339,-1220.5997 126.9222,-1222.518 130.6874,-1224.4246"/>
<polygon fill="#000000" stroke="#000000" points="129.3453,-1227.6681 139.8479,-1229.0632 132.5077,-1221.4231 129.3453,-1227.6681"/>
</g>
<!-- cz&#45;&gt;vv -->
<g id="edge101" class="edge">
<title>cz-&gt;vv</title>
<path fill="none" stroke="#000000" d="M1194.1369,-215.4092C1162.6857,-216.2712 1097.2571,-218.0646 1055.1133,-219.2197"/>
<polygon fill="#000000" stroke="#000000" points="1054.8357,-215.7259 1044.9354,-219.4987 1055.0275,-222.7233 1054.8357,-215.7259"/>
</g>
<!-- cz&#45;&gt;lc -->
<g id="edge100" class="edge">
<title>cz-&gt;lc</title>
<path fill="none" stroke="#000000" d="M1209.1428,-196.7935C1207.216,-185.4656 1204.6939,-170.6371 1202.5073,-157.781"/>
<polygon fill="#000000" stroke="#000000" points="1205.8972,-156.8374 1200.7699,-147.5659 1198.9963,-158.0112 1205.8972,-156.8374"/>
</g>
<!-- qb&#45;&gt;jc -->
<g id="edge102" class="edge">
<title>qb-&gt;jc</title>
<path fill="none" stroke="#000000" d="M939.4517,-1112.4491C960.8383,-1092.5827 996.2819,-1059.6584 1018.6348,-1038.8943"/>
<polygon fill="#000000" stroke="#000000" points="1021.2829,-1041.2115 1026.2275,-1031.8412 1016.5188,-1036.0828 1021.2829,-1041.2115"/>
</g>
<!-- qb&#45;&gt;cd -->
<g id="edge103" class="edge">
<title>qb-&gt;cd</title>
<path fill="none" stroke="#000000" d="M934.1775,-1147.4683C942.2654,-1158.8729 952.8356,-1173.7777 961.851,-1186.4901"/>
<polygon fill="#000000" stroke="#000000" points="959.1547,-1188.7384 967.7944,-1194.8707 964.8646,-1184.689 959.1547,-1188.7384"/>
</g>
<!-- xv&#45;&gt;tx -->
<g id="edge104" class="edge">
<title>xv-&gt;tx</title>
<path fill="none" stroke="#000000" d="M1210.9395,-1071.7422C1206.0114,-1066.4751 1200.5354,-1060.6224 1195.2653,-1054.9897"/>
<polygon fill="#000000" stroke="#000000" points="1197.6651,-1052.4318 1188.2771,-1047.5208 1192.5535,-1057.2143 1197.6651,-1052.4318"/>
</g>
<!-- pt&#45;&gt;xq -->
<g id="edge105" class="edge">
<title>pt-&gt;xq</title>
<path fill="none" stroke="#000000" d="M340.2036,-1212.4838C325.8625,-1186.6707 299.5592,-1139.3262 283.2936,-1110.0492"/>
<polygon fill="#000000" stroke="#000000" points="286.3093,-1108.2704 278.3932,-1101.2287 280.1903,-1111.67 286.3093,-1108.2704"/>
</g>
<!-- pt&#45;&gt;gt -->
<g id="edge106" class="edge">
<title>pt-&gt;gt</title>
<path fill="none" stroke="#000000" d="M332.2297,-1245.9033C327.4975,-1249.8828 322.3002,-1254.2535 317.24,-1258.5089"/>
<polygon fill="#000000" stroke="#000000" points="314.8883,-1255.9134 309.4875,-1265.0284 319.3937,-1261.2709 314.8883,-1255.9134"/>
</g>
<!-- rv&#45;&gt;jc -->
<g id="edge107" class="edge">
<title>rv-&gt;jc</title>
<path fill="none" stroke="#000000" d="M1208.3732,-1008.9294C1177.57,-1010.9192 1114.8865,-1014.9685 1075.0535,-1017.5417"/>
<polygon fill="#000000" stroke="#000000" points="1074.7149,-1014.0562 1064.9614,-1018.1937 1075.1662,-1021.0416 1074.7149,-1014.0562"/>
</g>
<!-- rv&#45;&gt;tp -->
<g id="edge108" class="edge">
<title>rv-&gt;tp</title>
<path fill="none" stroke="#000000" d="M1216.2013,-989.5527C1212.2488,-982.704 1207.662,-974.7561 1203.3313,-967.252"/>
<polygon fill="#000000" stroke="#000000" points="1206.0797,-965.0122 1198.0498,-958.1005 1200.0169,-968.5111 1206.0797,-965.0122"/>
</g>
<!-- ps&#45;&gt;xc -->
<g id="edge109" class="edge">
<title>ps-&gt;xc</title>
<path fill="none" stroke="#000000" d="M1069.4963,-1218.6946C1069.4544,-1217.1853 1069.4116,-1215.6383 1069.3683,-1214.0773"/>
<polygon fill="#000000" stroke="#000000" points="1072.8599,-1213.7221 1069.0841,-1203.8229 1065.8626,-1213.9161 1072.8599,-1213.7221"/>
</g>
</g>
</svg>