<?xml version="1.0" encoding="UTF-8" standalone="no"?><!DOCTYPE svg PUBLIC "-//W3C//DTD SVG 1.1//EN" "http://www.w3.org/Graphics/SVG/1.1/DTD/svg11.dtd"><!-- Generated by graphviz version 2.40.1 (20161225.0304)
 --><!-- Title: finite_state_machine Pages: 1 --><svg xmlns="http://www.w3.org/2000/svg" xmlns:xlink="http://www.w3.org/1999/xlink" width="316pt" height="246pt" viewBox="0.00 0.00 316.00 246.00">
<g id="graph0" class="graph" transform="scale(1 1) rotate(0) translate(4 242)">
<title>finite_state_machine</title>
<polygon fill="#ffffff" stroke="transparent" points="-4,4 -4,-242 312,-242 312,4 -4,4"/>
<!-- BC -->
<g id="node1" class="node">
<title>BC</title>
<polygon fill="none" stroke="#000000" points="54.4521,-153.2894 .4521,-153.2894 .4521,-117.2894 54.4521,-117.2894 54.4521,-153.2894"/>
<text text-anchor="middle" x="27.4521" y="-131.0894" font-family="Helvetica,Arial,sans-serif" font-size="14.00" fill="#000000">BC</text>
</g>
<!-- a -->
<g id="node4" class="node">
<title>a</title>
<polygon fill="none" stroke="#000000" points="142.8063,-138.1534 106.8063,-138.1534 106.8063,-102.1534 142.8063,-102.1534 142.8063,-138.1534"/>
<text text-anchor="middle" x="124.8063" y="-115.9534" font-family="Helvetica,Arial,sans-serif" font-size="14.00" fill="#000000">a</text>
</g>
<!-- BC&#45;&gt;a -->
<g id="edge1" class="edge">
<title>BC-&gt;a</title>
<path fill="none" stroke="#000000" d="M54.5707,-131.0732C67.7114,-129.0302 83.479,-126.5787 96.7423,-124.5166"/>
<polygon fill="#000000" stroke="#000000" points="97.4007,-127.9564 106.7442,-122.9616 96.3252,-121.0395 97.4007,-127.9564"/>
</g>
<!-- inv -->
<g id="node2" class="node">
<title>inv</title>
<polygon fill="none" stroke="#000000" points="261.0778,-109.276 214.5719,-72.3736 307.5837,-72.3736 261.0778,-109.276"/>
<text text-anchor="middle" x="261.0778" y="-80.4744" font-family="Helvetica,Arial,sans-serif" font-size="14.00" fill="#000000">inv</text>
</g>
<!-- b -->
<g id="node5" class="node">
<title>b</title>
<polygon fill="none" stroke="#000000" points="294.1468,-36.1085 258.1468,-36.1085 258.1468,-.1085 294.1468,-.1085 294.1468,-36.1085"/>
<text text-anchor="middle" x="276.1468" y="-13.9085" font-family="Helvetica,Arial,sans-serif" font-size="14.00" fill="#000000">b</text>
</g>
<!-- inv&#45;&gt;b -->
<g id="edge2" class="edge">
<title>inv-&gt;b</title>
<path fill="none" stroke="#000000" d="M263.9122,-72.1538C265.5723,-64.8205 267.7392,-55.2482 269.7874,-46.2005"/>
<polygon fill="#000000" stroke="#000000" points="273.2217,-46.8817 272.0161,-36.3557 266.3945,-45.3361 273.2217,-46.8817"/>
</g>
<!-- con -->
<g id="node3" class="node">
<title>con</title>
<polygon fill="none" stroke="#000000" points="152.4025,-79.1094 98.9955,-42.207 205.8096,-42.207 152.4025,-79.1094"/>
<text text-anchor="middle" x="152.4025" y="-50.3078" font-family="Helvetica,Arial,sans-serif" font-size="14.00" fill="#000000">con</text>
</g>
<!-- output -->
<g id="node6" class="node">
<title>output</title>
<polygon fill="none" stroke="#000000" points="220.6253,-237.8471 165.8019,-237.8471 165.8019,-183.0237 220.6253,-183.0237 220.6253,-237.8471"/>
<text text-anchor="middle" x="193.2136" y="-206.2354" font-family="Helvetica,Arial,sans-serif" font-size="14.00" fill="#000000">output</text>
</g>
<!-- con&#45;&gt;output -->
<g id="edge3" class="edge">
<title>con-&gt;output</title>
<path fill="none" stroke="#000000" d="M157.9065,-75.5368C164.4354,-100.4818 175.4393,-142.5246 183.43,-173.0549"/>
<polygon fill="#000000" stroke="#000000" points="180.0955,-174.1381 186.0136,-182.926 186.8674,-172.3656 180.0955,-174.1381"/>
</g>
<!-- a&#45;&gt;inv -->
<g id="edge4" class="edge">
<title>a-&gt;inv</title>
<path fill="none" stroke="#000000" d="M142.9021,-115.4421C164.4726,-109.8261 200.9554,-100.3276 227.6912,-93.3668"/>
<polygon fill="#000000" stroke="#000000" points="228.6137,-96.7433 237.4092,-90.8366 226.85,-89.9692 228.6137,-96.7433"/>
</g>
<!-- a&#45;&gt;con -->
<g id="edge5" class="edge">
<title>a-&gt;con</title>
<path fill="none" stroke="#000000" d="M132.4934,-101.8675C134.9215,-96.0915 137.666,-89.5628 140.3241,-83.2399"/>
<polygon fill="#000000" stroke="#000000" points="143.723,-84.1859 144.3719,-73.611 137.27,-81.4732 143.723,-84.1859"/>
</g>
<!-- b&#45;&gt;con -->
<g id="edge6" class="edge">
<title>b-&gt;con</title>
<path fill="none" stroke="#000000" d="M257.8879,-23.4793C243.6899,-27.6557 223.2577,-33.6658 204.1497,-39.2864"/>
<polygon fill="#000000" stroke="#000000" points="202.9242,-35.9985 194.3183,-42.1783 204.8996,-42.714 202.9242,-35.9985"/>
</g>
</g>
</svg>